<?xml version="1.0"?>
<svg xmlns="http://www.w3.org/2000/svg" viewbox="0 0 820 140">
 <style>
  <![CDATA[
    .dividers {
      stroke: rgb(106, 148, 0);
      stroke-dasharray: 1, 1;
    }

    .tag {
      dominant-baseline: central;
      font-family: monospace;
      font-weight: bold;
      font-size: 13px;
    }

    .label {
      dominant-baseline: central;
      font-family: sans-serif;
      font-size: 10px;
    }

    .parser {
      stroke: rgb(110, 174, 0);
      fill: rgb(110, 174, 0);
    }

    .fetch {
      stroke: rgb(0, 53, 255);
      fill: rgb(0, 53, 255);
    }

    .execution {
      stroke: rgb(255, 0, 0);
      fill: rgb(255, 0, 0);
    }

    .progress {
      stroke-width: 2;
    }

    .progress.parser:not(.first) {
      marker-start: url(#parser-marker);
    }
    .progress.parser:not(.last) {
      marker-end: url(#parser-marker);
    }

    .progress.fetch:not(.first) {
      marker-start: url(#fetch-marker);
    }
    .progress.fetch:not(.last) {
      marker-end: url(#fetch-marker);
    }

    .progress.execution:not(.first) {
      marker-start: url(#execution-marker);
    }
    .progress.execution:not(.last) {
      marker-end: url(#execution-marker);
    }

    marker > circle {
      stroke-width: 0;
    }

    .connector {
      stroke: rgb(206, 206, 206);
      stroke-width: 1;
    }
  ]]>
 </style>
 <g display="inline">
  <title>Layer 1</title>
  <g class="dividers" id="svg_4">
   <line x1="0" x2="820" y1="33.5" y2="33.5" id="svg_5"/>
   <line x1="0" x2="820" y1="66.5" y2="66.5" id="svg_6"/>
   <line x1="0" x2="820" y1="99.5" y2="99.5" id="svg_7"/>
   <line x1="245.5" x2="245.5" y1="1" y2="29" id="svg_9"/>
   <line x1="245.5" x2="245.5" y1="38" y2="62" id="svg_10"/>
   <line x1="245.5" x2="245.5" y1="68" y2="95" id="svg_11"/>
  </g>
  <g id="svg_14">
   <text x="12" y="16.75" class="tag" id="svg_15">&lt;script&gt;</text>
   <g id="svg_16">
    <text x="252" y="9" class="label" id="svg_17">Scripting:</text>
    <text x="252" y="24" class="label" id="svg_18">HTML Parser:</text>
    <line x1="509" x2="509" y1="9" y2="24" class="connector" id="svg_19"/>
    <line x1="656" x2="656" y1="9" y2="24" class="connector" id="svg_20"/>
    <line x1="358" x2="509" y1="24" y2="24" class="parser progress first" id="svg_21"/>
    <line x1="509" x2="606" y1="9" y2="9" class="fetch progress" id="svg_22"/>
    <line x1="606" x2="656" y1="9" y2="9" class="execution progress" id="svg_23"/>
    <line x1="656" x2="784" y1="24" y2="24" class="parser progress last" id="svg_24"/>
   </g>
  </g>
  <g id="svg_25">
   <text x="12" y="49.75" class="tag" id="svg_26">&lt;script defer&gt;</text>
   <g id="svg_27">
    <text x="252" y="42" class="label" id="svg_28">Scripting:</text>
    <text x="252" y="57" class="label" id="svg_29">HTML Parser:</text>
    <line x1="736" x2="736" y1="42" y2="57" class="connector" id="svg_30"/>
    <line x1="358" x2="736" y1="57" y2="57" class="parser progress first" id="svg_31"/>
    <line x1="509" x2="606" y1="42" y2="42" class="fetch progress" id="svg_32"/>
    <line x1="736" x2="784" y1="42" y2="42" class="execution progress last" id="svg_33"/>
   </g>
  </g>
  <g id="svg_34">
   <text x="12" y="82.75" class="tag" id="svg_35">&lt;script async&gt;</text>
   <g id="svg_36">
    <text x="252" y="75" class="label" id="svg_37">Scripting:</text>
    <text x="252" y="90" class="label" id="svg_38">HTML Parser:</text>
    <line x1="606" x2="606" y1="75" y2="90" class="connector" id="svg_39"/>
    <line x1="656" x2="656" y1="75" y2="90" class="connector" id="svg_40"/>
    <line x1="358" x2="606" y1="90" y2="90" class="parser progress first" id="svg_41"/>
    <line x1="509" x2="606" y1="75" y2="75" class="fetch progress" id="svg_42"/>
    <line x1="606" x2="656" y1="75" y2="75" class="execution progress" id="svg_43"/>
    <line x1="656" x2="784" y1="90" y2="90" class="parser progress last" id="svg_44"/>
   </g>
  </g>
  <g class="legend" id="svg_75">
   <circle cx="360.5" cy="112.850468" r="3" class="parser" id="svg_76"/>
   <text x="366.5" y="112.850468" class="label" id="svg_77">parser</text>
   <circle cx="407.5" cy="112.850468" r="3" class="fetch" id="svg_78"/>
   <text x="413.5" y="112.850468" class="label" id="svg_79">fetch</text>
   <circle cx="447.5" cy="112.850468" r="3" class="execution" id="svg_80"/>
   <text x="453.5" y="112.850468" class="label" id="svg_81">execution</text>
  </g>
  <text x="782" y="112.850468" text-anchor="end" class="label" id="svg_82">runtime →</text>
 </g>
</svg>